:SAMPLES-PER-SECOND 30
:FULLY-SPECIFIED
:DEGREES
33
root  77.0832 40.158 17.6264 173.041 -87.3959 -173.551
RightUpLeg  -1.42559 -7.34279 -2.87175
RightLeg  8.12847 -1.80276 2.63513
RightFoot  -7.04676 0.00511906 -1.41106
RightToes  2.32829e-010 0 -3.6325e-017
Spine  6.44693 -0.528728 3.7575
Spine1  5.46371 -0.254289 -0.779719
HEad  -11.5995 7.6318 -8.59558
LeftShoulder1  5.69326 -8.13777 -42.4487
LeftArm  -15.3337 15.6779 -39.3399
LeftForeArm  24.525 -15.225 -3.89137
LeftHand  -0.244104 0.0205437 5.32207
RightShoulder  4.86286 7.61916 37.6834
RightArm  -14.1625 -15.1049 37.5947
RightForeArm  2.13074 12.5365 5.71544
RightHand  -0.440117 -0.214428 -9.9058
LeftUpLeg  0.00482367 5.57513 1.82437
LeftLeg  6.34195 13.9988 -2.91562
LeftFoot  -8.14691 0.059621 -0.377982
LeftToes  -1.53708e-010 -3.96652e-011 -3.29181e-011
34
root  76.8913 40.1282 17.6184 177.322 -87.2243 -178.211
RightUpLeg  -1.10895 -7.42334 -2.98272
RightLeg  8.95141 -1.43695 2.26497
RightFoot  -7.91185 -0.0128297 -1.36315
RightToes  2.32829e-010 0 -3.6325e-017
Spine  7.03225 -0.647756 3.43226
Spine1  5.88828 -0.47958 -0.27614
HEad  -12.3072 7.27465 -9.32922
LeftShoulder1  6.21876 -8.74028 -44.1972
LeftArm  -14.2829 16.2805 -41.2319
LeftForeArm  21.712 -16.1241 -4.04926
LeftHand  -0.244104 0.0205437 5.32207
RightShoulder  5.21779 8.00599 39.2379
RightArm  -14.2562 -15.5487 40.9579
RightForeArm  -5.2063 11.8345 6.46296
RightHand  -0.32539 -1.52157 -9.64114
LeftUpLeg  0.600319 5.64335 1.56531
LeftLeg  6.671 14.0231 -2.63145
LeftFoot  -8.67678 0.0644545 -0.531044
LeftToes  -1.53708e-010 -3.96652e-011 -3.29181e-011
35
root  76.6393 40.0983 17.6035 176.935 -87.1331 -177.693
RightUpLeg  -1.14388 -7.2987 -2.78594
RightLeg  9.63051 -1.39075 1.8966
RightFoot  -8.91526 -0.0338297 -1.24973
RightToes  2.32829e-010 0 -3.6325e-017
Spine  6.68888 -0.712208 3.40602
Spine1  6.72678 -0.701038 0.310782
HEad  -13.2901 6.93645 -10.2741
LeftShoulder1  6.41888 -8.93656 -44.93
LeftArm  -14.4037 17.0126 -40.1988
LeftForeArm  20.9157 -19.1639 -3.74209
LeftHand  -0.244104 0.0205437 5.32207
RightShoulder  5.31368 8.15643 39.4599
RightArm  -15.5668 -16.8183 41.7016
RightForeArm  -14.3121 13.1642 6.6796
RightHand  -0.510431 -0.664374 -12.3823
LeftUpLeg  0.620375 5.93487 1.55004
LeftLeg  7.26763 13.7095 -2.29335
LeftFoot  -9.25724 0.0691745 -0.745734
LeftToes  -1.53708e-010 -3.96652e-011 -3.29181e-011
36
root  76.3145 40.0686 17.5995 174.073 -86.9656 -174.324
RightUpLeg  -1.32594 -7.18473 -2.5021
RightLeg  10.0655 -1.40027 1.65316
RightFoot  -10.0554 -0.0578245 -0.891915
RightToes  2.32829e-010 0 -3.6325e-017
Spine  5.65954 -0.622139 3.89753
Spine1  7.7239 -0.67412 0.456755
HEad  -14.5216 6.90469 -10.8198
LeftShoulder1  6.34559 -8.89422 -44.5498
LeftArm  -11.6843 17.4412 -37.242
LeftForeArm  19.7859 -22.7485 -3.90568
LeftHand  -0.244104 0.0205437 5.32207
RightShoulder  5.21012 8.08492 38.8748
RightArm  -13.7076 -18.4208 39.7499
RightForeArm  -13.7726 16.4869 6.14137
RightHand  -0.828023 1.38082 -14.3788
LeftUpLeg  0.426362 6.30892 1.7525
LeftLeg  7.76109 13.4354 -2.15537
LeftFoot  -9.98682 0.0713767 -0.966909
LeftToes  -1.53708e-010 -3.96652e-011 -3.29181e-011
37
root  75.9254 40.0417 17.5922 173.437 -86.5905 -173.108
RightUpLeg  -1.36062 -7.1225 -2.40442
RightLeg  10.2595 -1.29024 1.54873
RightFoot  -11.2721 -0.0760206 -0.28256
RightToes  2.32829e-010 0 -3.6325e-017
Spine  4.60247 -0.383939 4.28265
Spine1  8.3976 -0.478862 0.515335
HEad  -15.9975 7.45087 -10.8428
LeftShoulder1  6.25174 -8.95332 -43.6432
LeftArm  -8.96624 17.6915 -34.6323
LeftForeArm  21.1729 -25.5255 -4.33393
LeftHand  -0.244104 0.0205437 5.32207
RightShoulder  5.12625 8.0721 38.2299
RightArm  -6.53835 -19.7175 36.3289
RightForeArm  -5.469 20.5115 5.34218
RightHand  -0.835262 1.7274 -13.735
LeftUpLeg  0.557669 6.41015 1.94943
LeftLeg  7.68616 13.559 -2.32549
LeftFoot  -10.7728 0.071207 -1.35072
LeftToes  -1.53708e-010 -3.96652e-011 -3.29181e-011
38
root  75.4931 40.0166 17.5571 174.283 -86.3564 -173.515
RightUpLeg  -1.05109 -6.99929 -2.41971
RightLeg  10.2846 -1.40134 1.44872
RightFoot  -12.5086 -0.0808704 0.373638
RightToes  2.32829e-010 0 -3.6325e-017
Spine  3.9246 -0.258462 4.21256
Spine1  8.65672 -0.473642 0.878207
HEad  -17.4768 8.2103 -10.7147
LeftShoulder1  6.26739 -9.22109 -42.7874
LeftArm  -8.41143 18.2999 -33.1283
LeftForeArm  24.6377 -28.2848 -4.76885
LeftHand  -0.244104 0.0205437 5.32207
RightShoulder  5.14842 8.27458 37.6786
RightArm  1.21364 -21.1105 33.1043
RightForeArm  -1.30361 25.5104 5.47093
RightHand  -0.641889 0.638455 -12.4291
LeftUpLeg  0.960039 6.2695 2.03671
LeftLeg  7.48226 13.6475 -2.41501
LeftFoot  -11.4382 0.0669406 -2.02584
LeftToes  -1.53708e-010 -3.96652e-011 -3.29181e-011
39
root  75.0363 39.9707 17.4943 175.056 -86.5089 -173.925
RightUpLeg  -0.706591 -6.90084 -2.36473
RightLeg  10.5739 -1.8573 1.16215
RightFoot  -13.8973 -0.0742636 0.886683
RightToes  2.32829e-010 0 -3.6325e-017
Spine  3.55978 -0.367454 4.05629
Spine1  8.7898 -0.689999 1.18325
HEad  -18.7689 8.4625 -10.7577
LeftShoulder1  6.32363 -9.51582 -42.1575
LeftArm  -8.78432 19.1038 -31.9165
LeftForeArm  26.1726 -32.4574 -5.67064
LeftHand  -0.244104 0.0205437 5.32207
RightShoulder  5.18601 8.50944 37.1545
RightArm  3.69464 -23.1128 31.1364
RightForeArm  -4.53549 32.0565 7.31867
RightHand  -0.466337 -0.851265 -11.9329
LeftUpLeg  1.07865 6.35074 1.97868
LeftLeg  8.03141 13.2494 -2.00334
LeftFoot  -12.16 0.0542331 -2.66505
LeftToes  -1.53708e-010 -3.96652e-011 -3.29181e-011
40
root  74.5865 39.8467 17.416 176.642 -86.7676 -174.944
RightUpLeg  -1.21962 -7.0158 -2.15008
RightLeg  12.0699 -2.22987 0.555393
RightFoot  -15.6253 -0.0640291 1.12362
RightToes  2.32829e-010 0 -3.6325e-017
Spine  3.42498 -0.533936 4.1517
Spine1  8.76994 -0.836339 1.09444
HEad  -19.9729 8.54116 -11.0172
LeftShoulder1  6.34179 -9.67634 -41.7373
LeftArm  -8.95066 19.7278 -30.4725
LeftForeArm  26.3352 -38.7455 -7.3461
LeftHand  -0.244104 0.0205437 5.32207
RightShoulder  5.16734 8.5818 36.7542
RightArm  1.38283 -25.3435 30.9682
RightForeArm  -8.94578 40.2419 10.0214
RightHand  -0.433815 -1.60656 -13.1605
LeftUpLeg  0.258809 7.69793 1.69149
LeftLeg  9.96027 11.7212 -0.866458
LeftFoot  -13.5907 0.0200646 -3.13071
LeftToes  -1.53708e-010 -3.96652e-011 -3.29181e-011
